<?xml version="1.0" standalone="no"?>
<!DOCTYPE svg PUBLIC "-//W3C//DTD SVG 20010904//EN"
 "http://www.w3.org/TR/2001/REC-SVG-20010904/DTD/svg10.dtd">
<svg version="1.0" xmlns="http://www.w3.org/2000/svg"
 width="111.000000pt" height="155.000000pt" viewBox="0 0 111.000000 155.000000"
 preserveAspectRatio="xMidYMid meet">
<metadata>
Created by potrace 1.16, written by Peter Selinger 2001-2019
</metadata>
<g transform="translate(0.000000,155.000000) scale(0.100000,-0.100000)"
fill="#000000" stroke="none">
<path d="M268 1464 c-16 -8 -28 -19 -28 -24 0 -6 -6 -10 -13 -10 -16 0 -57
-41 -57 -57 0 -6 -7 -13 -15 -17 -8 -3 -15 -12 -15 -21 0 -8 -4 -15 -9 -15 -4
0 -18 -23 -30 -51 -19 -47 -21 -70 -21 -263 0 -259 24 -489 71 -676 19 -77 68
-167 116 -211 40 -36 49 -41 80 -36 42 7 116 44 195 98 32 22 64 39 72 39 8 0
16 4 18 8 5 13 119 59 188 76 36 9 67 21 68 26 2 6 9 10 16 10 14 0 63 52 84
88 18 32 15 90 -8 155 -31 87 -24 332 10 357 4 3 17 36 30 74 36 111 12 198
-86 303 -73 78 -131 106 -232 111 -45 3 -85 8 -88 13 -3 5 -23 9 -44 9 -21 0
-74 7 -117 15 -97 19 -150 18 -185 -1z"/>
</g>
</svg>
