<?xml version="1.0" standalone="no"?>
<!DOCTYPE svg PUBLIC "-//W3C//DTD SVG 20010904//EN"
 "http://www.w3.org/TR/2001/REC-SVG-20010904/DTD/svg10.dtd">
<svg version="1.0" xmlns="http://www.w3.org/2000/svg"
 width="233.000000pt" height="201.000000pt" viewBox="0 0 233.000000 201.000000"
 preserveAspectRatio="xMidYMid meet">
<metadata>
Created by potrace 1.16, written by Peter Selinger 2001-2019
</metadata>
<g transform="translate(0.000000,201.000000) scale(0.100000,-0.100000)"
fill="#000000" stroke="none">
<path d="M1475 1921 c-6 -5 -42 -18 -80 -30 -116 -34 -194 -91 -318 -233 -17
-20 -47 -52 -64 -69 -18 -18 -33 -36 -33 -41 0 -4 -14 -21 -31 -36 -17 -15
-39 -34 -49 -43 -30 -28 -139 -66 -255 -89 -155 -31 -204 -52 -269 -113 -57
-55 -126 -140 -126 -157 0 -6 -4 -10 -9 -10 -12 0 -86 -118 -112 -176 -47
-110 -67 -262 -44 -331 24 -72 88 -213 97 -213 4 0 8 -11 8 -25 0 -110 200
-275 333 -275 50 0 86 13 100 36 4 8 13 14 20 14 11 0 117 108 117 120 0 4 11
20 24 35 13 15 30 40 38 54 7 14 18 31 24 36 15 14 84 114 84 121 0 3 39 46
88 94 143 144 220 164 431 111 195 -49 324 -41 396 25 21 19 40 34 42 34 7 0
33 28 33 35 0 3 9 15 20 27 11 12 20 28 20 35 0 7 4 13 9 13 5 0 14 15 22 33
7 17 16 34 19 37 3 3 13 16 22 29 9 13 55 63 102 111 47 49 86 93 86 99 0 6 4
11 8 11 33 0 43 159 17 267 -36 152 -94 202 -285 243 -137 31 -233 79 -328
165 -24 22 -54 45 -65 52 -26 15 -79 17 -92 4z"/>
</g>
</svg>
