<?xml version="1.0" standalone="no"?>
<!DOCTYPE svg PUBLIC "-//W3C//DTD SVG 20010904//EN"
 "http://www.w3.org/TR/2001/REC-SVG-20010904/DTD/svg10.dtd">
<svg version="1.0" xmlns="http://www.w3.org/2000/svg"
 width="225.000000pt" height="205.000000pt" viewBox="0 0 225.000000 205.000000"
 preserveAspectRatio="xMidYMid meet">
<metadata>
Created by potrace 1.16, written by Peter Selinger 2001-2019
</metadata>
<g transform="translate(0.000000,205.000000) scale(0.100000,-0.100000)"
fill="#000000" stroke="none">
<path d="M1450 1954 c-43 -24 -99 -95 -154 -194 -70 -129 -75 -136 -121 -182
-37 -38 -45 -41 -107 -46 -36 -2 -77 -2 -91 2 -13 3 -69 51 -124 106 -103 103
-177 150 -237 150 -30 0 -146 -49 -146 -62 0 -4 -6 -8 -14 -8 -7 0 -38 -19
-67 -43 -195 -154 -279 -258 -300 -372 -6 -32 -3 -45 14 -70 12 -16 25 -31 29
-33 4 -2 8 -10 8 -18 0 -8 3 -14 8 -14 4 0 12 -10 18 -23 6 -12 25 -48 43 -81
29 -54 31 -65 31 -157 0 -100 -17 -178 -46 -206 -8 -8 -14 -20 -14 -26 0 -7
-18 -48 -40 -91 -22 -43 -40 -90 -40 -105 0 -45 83 -108 185 -141 59 -19 80
-35 122 -98 21 -31 41 -59 46 -60 4 -2 7 -9 7 -15 0 -7 15 -29 33 -50 33 -36
57 -48 57 -27 0 6 7 10 15 10 17 0 165 141 165 158 0 6 6 15 13 19 7 4 37 44
67 88 67 99 69 101 125 126 61 27 163 34 278 20 114 -15 134 -8 210 73 27 28
71 75 98 103 60 64 87 78 160 87 96 12 229 63 229 88 0 4 6 8 14 8 18 0 127
108 166 165 59 86 90 165 90 230 -1 117 -59 193 -224 290 -116 68 -136 84
-173 139 -33 48 -30 44 -90 125 -27 35 -57 69 -67 75 -11 6 -29 20 -40 31 -25
24 -70 45 -94 44 -9 -1 -28 -7 -42 -15z"/>
</g>
</svg>
