<?xml version="1.0" standalone="no"?>
<!DOCTYPE svg PUBLIC "-//W3C//DTD SVG 20010904//EN"
 "http://www.w3.org/TR/2001/REC-SVG-20010904/DTD/svg10.dtd">
<svg version="1.0" xmlns="http://www.w3.org/2000/svg"
 width="158.000000pt" height="231.000000pt" viewBox="0 0 158.000000 231.000000"
 preserveAspectRatio="xMidYMid meet">
<metadata>
Created by potrace 1.16, written by Peter Selinger 2001-2019
</metadata>
<g transform="translate(0.000000,231.000000) scale(0.100000,-0.100000)"
fill="#000000" stroke="none">
<path d="M978 2228 c-7 -7 -25 -19 -40 -27 -15 -8 -60 -50 -100 -93 -40 -44
-107 -105 -148 -136 -41 -31 -77 -58 -80 -62 -3 -3 -17 -11 -32 -19 -16 -8
-28 -18 -28 -23 0 -4 -5 -8 -11 -8 -27 0 -164 -136 -274 -274 -16 -20 -38 -45
-47 -54 -10 -9 -18 -22 -18 -29 0 -7 -4 -13 -9 -13 -14 0 -91 -162 -91 -191 0
-14 -5 -30 -11 -36 -18 -18 -13 -95 10 -166 13 -37 27 -67 32 -67 5 0 9 -6 9
-14 0 -8 6 -21 13 -28 24 -25 89 -208 117 -328 56 -242 107 -339 224 -426 71
-54 175 -109 261 -139 66 -22 297 -37 344 -21 31 10 70 59 87 109 4 9 10 17
15 17 5 0 9 7 9 15 0 8 5 15 10 15 6 0 10 4 10 9 0 5 16 26 35 47 19 21 35 43
35 50 0 7 4 14 8 16 11 4 115 163 139 213 34 68 55 143 55 198 0 49 -43 204
-60 217 -10 7 -65 130 -88 195 -11 33 -19 93 -22 176 -4 123 -3 130 34 260 47
165 48 221 9 339 -15 47 -32 87 -36 88 -5 2 -9 9 -9 17 0 21 -40 105 -63 131
-37 43 -73 54 -178 54 -64 0 -102 -4 -111 -12z"/>
</g>
</svg>
