<?xml version="1.0" standalone="no"?>
<!DOCTYPE svg PUBLIC "-//W3C//DTD SVG 20010904//EN"
 "http://www.w3.org/TR/2001/REC-SVG-20010904/DTD/svg10.dtd">
<svg version="1.0" xmlns="http://www.w3.org/2000/svg"
 width="127.000000pt" height="212.000000pt" viewBox="0 0 127.000000 212.000000"
 preserveAspectRatio="xMidYMid meet">
<metadata>
Created by potrace 1.16, written by Peter Selinger 2001-2019
</metadata>
<g transform="translate(0.000000,212.000000) scale(0.100000,-0.100000)"
fill="#000000" stroke="none">
<path d="M253 2031 c-24 -11 -43 -25 -43 -31 0 -5 -7 -10 -15 -10 -8 0 -15 -7
-15 -15 0 -9 -7 -18 -15 -21 -8 -4 -15 -12 -15 -20 0 -8 -4 -14 -8 -14 -4 0
-14 -16 -21 -36 -12 -33 -10 -40 24 -112 20 -42 42 -84 50 -92 47 -53 115
-375 123 -577 4 -131 3 -145 -17 -187 -12 -25 -31 -48 -42 -51 -10 -4 -19 -10
-19 -14 0 -4 -16 -13 -35 -20 -19 -7 -35 -17 -35 -22 0 -5 -6 -9 -13 -9 -21 0
-87 -74 -87 -97 0 -36 40 -70 136 -117 50 -25 108 -59 130 -76 41 -32 181
-168 267 -260 155 -164 281 -216 393 -161 57 29 142 114 166 166 11 24 3 95
-10 95 -4 0 -13 12 -19 27 -7 16 -23 39 -35 53 -48 53 -80 140 -86 230 -4 85
11 200 28 200 5 0 14 17 21 38 6 20 19 48 29 62 9 14 34 57 55 95 45 80 44 68
30 380 -5 125 -4 203 5 255 23 148 24 179 5 221 -20 43 -57 70 -121 89 -37 11
-51 9 -159 -24 -183 -56 -265 -50 -425 30 -93 47 -164 55 -227 25z"/>
</g>
</svg>
