<?xml version="1.0" standalone="no"?>
<!DOCTYPE svg PUBLIC "-//W3C//DTD SVG 20010904//EN"
 "http://www.w3.org/TR/2001/REC-SVG-20010904/DTD/svg10.dtd">
<svg version="1.0" xmlns="http://www.w3.org/2000/svg"
 width="275.000000pt" height="207.000000pt" viewBox="0 0 275.000000 207.000000"
 preserveAspectRatio="xMidYMid meet">
<metadata>
Created by potrace 1.16, written by Peter Selinger 2001-2019
</metadata>
<g transform="translate(0.000000,207.000000) scale(0.100000,-0.100000)"
fill="#000000" stroke="none">
<path d="M1575 1978 c-21 -11 -115 -102 -115 -111 0 -13 -71 -84 -135 -135
-38 -31 -74 -61 -80 -66 -14 -16 -144 -83 -196 -102 -33 -12 -99 -18 -264 -23
-169 -5 -228 -10 -255 -23 -19 -8 -50 -21 -68 -28 -17 -7 -32 -15 -32 -19 0
-3 -12 -12 -27 -19 -51 -22 -213 -166 -213 -188 0 -7 -7 -14 -15 -18 -8 -3
-15 -12 -15 -21 0 -8 -4 -15 -8 -15 -5 0 -22 -26 -38 -57 -22 -45 -29 -72 -29
-117 0 -39 4 -61 13 -64 6 -2 12 -10 12 -18 0 -8 5 -14 10 -14 6 0 10 -5 10
-11 0 -7 19 -33 42 -59 59 -64 78 -89 78 -100 0 -6 3 -10 8 -10 11 0 57 -103
97 -215 59 -168 84 -182 314 -169 86 5 212 9 281 9 123 -1 126 -1 195 -36 39
-19 93 -51 120 -72 28 -20 55 -37 62 -37 6 0 15 -9 18 -20 3 -11 10 -20 14
-20 4 0 17 -8 29 -18 54 -44 71 -55 129 -83 34 -16 75 -29 92 -29 75 0 294 92
335 140 18 22 24 45 29 105 8 93 36 149 110 223 75 74 81 79 105 86 12 4 22
11 22 15 0 9 113 44 247 75 107 25 120 31 184 90 31 30 38 42 33 59 -16 50
-128 102 -273 127 -161 28 -206 45 -286 106 -38 30 -83 64 -100 76 -115 87
-159 173 -250 484 -57 196 -100 297 -137 318 -31 19 -28 18 -53 4z"/>
</g>
</svg>
