<?xml version="1.0" standalone="no"?>
<!DOCTYPE svg PUBLIC "-//W3C//DTD SVG 20010904//EN"
 "http://www.w3.org/TR/2001/REC-SVG-20010904/DTD/svg10.dtd">
<svg version="1.0" xmlns="http://www.w3.org/2000/svg"
 width="231.000000pt" height="259.000000pt" viewBox="0 0 231.000000 259.000000"
 preserveAspectRatio="xMidYMid meet">
<metadata>
Created by potrace 1.16, written by Peter Selinger 2001-2019
</metadata>
<g transform="translate(0.000000,259.000000) scale(0.100000,-0.100000)"
fill="#000000" stroke="none">
<path d="M1086 2504 c-62 -23 -130 -104 -187 -222 -64 -135 -104 -197 -169
-260 -75 -74 -146 -114 -287 -162 -132 -45 -202 -83 -229 -125 -25 -38 -54
-131 -61 -196 -7 -72 12 -109 80 -153 124 -81 162 -162 162 -346 0 -64 -5
-120 -14 -144 -8 -24 -48 -75 -106 -136 -51 -53 -102 -115 -114 -137 -27 -54
-91 -266 -91 -303 0 -41 55 -94 113 -109 64 -16 83 -14 167 14 58 19 96 25
171 25 94 0 96 0 160 -40 111 -70 227 -123 280 -128 79 -7 134 27 273 168 65
66 122 120 126 120 5 0 13 6 17 13 10 17 91 54 145 67 63 14 162 12 267 -6 88
-15 94 -15 159 5 159 48 276 180 277 311 0 43 -12 85 -54 194 l-54 139 7 181
c4 117 2 194 -4 218 -9 30 -64 91 -261 290 -138 138 -259 268 -269 288 -11 21
-33 83 -49 140 -57 189 -99 238 -241 285 -87 28 -154 30 -214 9z"/>
</g>
</svg>
