<?xml version="1.0" standalone="no"?>
<!DOCTYPE svg PUBLIC "-//W3C//DTD SVG 20010904//EN"
 "http://www.w3.org/TR/2001/REC-SVG-20010904/DTD/svg10.dtd">
<svg version="1.0" xmlns="http://www.w3.org/2000/svg"
 width="115.000000pt" height="163.000000pt" viewBox="0 0 115.000000 163.000000"
 preserveAspectRatio="xMidYMid meet">
<metadata>
Created by potrace 1.16, written by Peter Selinger 2001-2019
</metadata>
<g transform="translate(0.000000,163.000000) scale(0.100000,-0.100000)"
fill="#000000" stroke="none">
<path d="M528 1543 c-21 -8 -38 -19 -38 -23 0 -4 -11 -11 -25 -14 -14 -4 -25
-11 -25 -16 0 -6 -6 -10 -13 -10 -25 0 -128 -109 -152 -162 -13 -29 -31 -96
-40 -148 -26 -164 -37 -215 -45 -225 -5 -5 -16 -30 -26 -55 -10 -25 -27 -54
-37 -65 -36 -38 -57 -93 -57 -147 0 -77 42 -226 69 -248 4 -3 12 -18 19 -33 6
-15 20 -31 29 -34 10 -4 26 -14 35 -22 9 -9 39 -27 65 -41 26 -14 56 -34 66
-45 25 -27 47 -79 47 -109 0 -27 35 -66 59 -66 8 0 46 14 85 31 39 17 92 40
119 52 26 11 47 24 47 29 0 4 6 8 14 8 8 0 21 6 28 13 7 7 23 17 34 22 27 13
73 48 137 105 88 79 102 96 129 157 18 42 20 56 12 132 -9 88 -10 198 -5 356
2 72 -2 102 -19 150 -11 33 -24 68 -27 78 -3 9 -9 17 -13 17 -4 0 -11 11 -14
25 -4 14 -11 25 -16 25 -6 0 -10 6 -10 14 0 19 -128 146 -146 146 -8 0 -14 5
-14 10 0 6 -7 10 -15 10 -8 0 -15 4 -15 8 0 10 -171 92 -191 91 -8 0 -31 -7
-51 -16z"/>
</g>
</svg>
