<?xml version="1.0" standalone="no"?>
<!DOCTYPE svg PUBLIC "-//W3C//DTD SVG 20010904//EN"
 "http://www.w3.org/TR/2001/REC-SVG-20010904/DTD/svg10.dtd">
<svg version="1.0" xmlns="http://www.w3.org/2000/svg"
 width="144.000000pt" height="222.000000pt" viewBox="0 0 144.000000 222.000000"
 preserveAspectRatio="xMidYMid meet">
<metadata>
Created by potrace 1.16, written by Peter Selinger 2001-2019
</metadata>
<g transform="translate(0.000000,222.000000) scale(0.100000,-0.100000)"
fill="#000000" stroke="none">
<path d="M1260 2133 c-48 -17 -170 -78 -170 -85 0 -4 -7 -8 -15 -8 -8 0 -15
-5 -15 -10 0 -6 -8 -14 -17 -17 -23 -9 -73 -58 -73 -72 0 -6 -4 -11 -10 -11
-5 0 -10 -6 -10 -14 0 -8 -4 -16 -9 -18 -4 -1 -43 -74 -85 -160 -43 -87 -82
-158 -87 -158 -5 0 -9 -9 -9 -20 0 -11 -5 -20 -12 -20 -6 0 -42 -29 -79 -65
-88 -85 -154 -116 -265 -123 -72 -4 -88 -9 -111 -30 -26 -24 -27 -29 -34 -176
-8 -174 -15 -203 -75 -308 -24 -42 -44 -82 -44 -87 0 -5 -4 -11 -9 -13 -5 -1
-20 -27 -35 -55 -26 -52 -26 -53 -9 -95 25 -65 28 -189 7 -276 -10 -39 -22
-72 -26 -72 -13 0 -9 -39 7 -69 19 -37 52 -48 210 -72 168 -25 169 -25 245 12
36 17 79 35 95 40 17 4 55 17 85 28 85 31 239 29 314 -4 88 -39 107 -34 189
44 126 120 161 323 86 499 -11 26 -24 49 -28 52 -4 3 -12 23 -19 45 -6 22 -22
74 -34 115 -21 67 -23 96 -23 275 0 178 3 210 24 289 13 50 27 97 32 105 14
27 59 162 90 270 44 159 38 225 -26 256 -18 8 -35 15 -37 14 -1 0 -10 -3 -18
-6z"/>
</g>
</svg>
