<?xml version="1.0" standalone="no"?>
<!DOCTYPE svg PUBLIC "-//W3C//DTD SVG 20010904//EN"
 "http://www.w3.org/TR/2001/REC-SVG-20010904/DTD/svg10.dtd">
<svg version="1.0" xmlns="http://www.w3.org/2000/svg"
 width="221.000000pt" height="284.000000pt" viewBox="0 0 221.000000 284.000000"
 preserveAspectRatio="xMidYMid meet">
<metadata>
Created by potrace 1.16, written by Peter Selinger 2001-2019
</metadata>
<g transform="translate(0.000000,284.000000) scale(0.100000,-0.100000)"
fill="#000000" stroke="none">
<path d="M1440 2749 c-45 -12 -134 -52 -138 -61 -2 -5 -10 -8 -18 -8 -8 0 -17
-7 -20 -15 -4 -8 -11 -15 -18 -15 -14 0 -116 -101 -117 -115 -1 -21 -127 -117
-198 -153 l-75 -37 -196 -5 -196 -5 -49 -36 c-28 -19 -76 -66 -108 -105 -64
-75 -147 -233 -147 -279 0 -23 18 -46 94 -119 127 -124 146 -162 146 -299 0
-137 -22 -185 -124 -266 -98 -78 -194 -175 -202 -205 -9 -37 3 -61 55 -116 54
-56 157 -110 226 -118 63 -7 115 27 222 145 149 165 209 219 274 252 58 29 70
31 166 31 117 0 147 -10 187 -62 60 -80 63 -257 6 -333 -8 -11 -41 -42 -74
-69 -95 -81 -156 -184 -142 -241 15 -60 92 -118 186 -139 39 -9 72 -45 114
-126 66 -124 71 -133 91 -144 11 -6 25 -17 33 -23 7 -7 20 -13 29 -13 29 0
226 70 284 101 54 29 169 137 169 159 0 5 6 13 13 17 25 15 158 203 183 258
69 151 17 358 -132 525 -83 93 -156 203 -185 278 -18 49 -22 85 -27 255 -3
128 -1 206 6 220 14 31 32 169 32 250 0 37 4 67 8 67 14 0 2 220 -15 280 -33
121 -103 212 -196 256 -55 25 -89 28 -147 13z"/>
</g>
</svg>
