<?xml version="1.0" standalone="no"?>
<!DOCTYPE svg PUBLIC "-//W3C//DTD SVG 20010904//EN"
 "http://www.w3.org/TR/2001/REC-SVG-20010904/DTD/svg10.dtd">
<svg version="1.0" xmlns="http://www.w3.org/2000/svg"
 width="162.000000pt" height="180.000000pt" viewBox="0 0 162.000000 180.000000"
 preserveAspectRatio="xMidYMid meet">
<metadata>
Created by potrace 1.16, written by Peter Selinger 2001-2019
</metadata>
<g transform="translate(0.000000,180.000000) scale(0.100000,-0.100000)"
fill="#000000" stroke="none">
<path d="M750 1701 c-83 -32 -259 -52 -283 -33 -6 5 -51 19 -98 31 -75 19 -94
20 -133 10 -25 -6 -46 -15 -46 -20 0 -5 -6 -9 -13 -9 -20 0 -74 -60 -91 -102
-32 -76 -17 -202 38 -320 24 -52 121 -316 144 -393 54 -180 64 -237 72 -438 8
-178 11 -204 32 -245 19 -38 34 -52 81 -76 52 -26 71 -30 171 -34 97 -4 121
-1 179 18 36 12 75 31 86 41 11 11 24 19 29 19 13 0 57 50 91 105 18 28 45 95
62 150 16 55 34 114 38 130 5 17 17 77 26 135 34 216 54 266 140 354 31 32 64
70 73 85 9 14 25 32 34 39 10 7 18 20 18 28 0 8 4 14 8 14 12 0 77 96 111 165
46 94 48 122 12 173 -17 23 -38 42 -46 42 -8 0 -15 4 -15 8 0 12 -51 34 -173
76 -245 84 -411 98 -547 47z"/>
</g>
</svg>
