<?xml version="1.0" standalone="no"?>
<!DOCTYPE svg PUBLIC "-//W3C//DTD SVG 20010904//EN"
 "http://www.w3.org/TR/2001/REC-SVG-20010904/DTD/svg10.dtd">
<svg version="1.0" xmlns="http://www.w3.org/2000/svg"
 width="240.000000pt" height="217.000000pt" viewBox="0 0 240.000000 217.000000"
 preserveAspectRatio="xMidYMid meet">
<metadata>
Created by potrace 1.16, written by Peter Selinger 2001-2019
</metadata>
<g transform="translate(0.000000,217.000000) scale(0.100000,-0.100000)"
fill="#000000" stroke="none">
<path d="M1548 2072 c-10 -10 -18 -24 -18 -30 0 -7 -4 -12 -10 -12 -17 0 -40
-101 -49 -216 -14 -173 -45 -214 -165 -214 -91 0 -171 21 -261 68 -38 20 -72
39 -75 42 -17 17 -157 114 -179 123 -31 14 -65 39 -154 120 -79 72 -94 81
-163 102 -37 11 -58 13 -77 6 -29 -11 -97 -74 -97 -90 0 -6 -4 -11 -9 -11 -5
0 -18 -28 -29 -62 -26 -82 -29 -96 -46 -224 -14 -105 -31 -167 -111 -393 -40
-113 -40 -111 -1 -251 11 -36 16 -97 16 -180 0 -128 11 -202 29 -208 6 -2 11
-14 11 -27 0 -26 72 -105 95 -105 8 0 15 -4 15 -9 0 -12 103 -51 136 -51 13 0
32 -4 42 -9 9 -6 59 -17 111 -25 123 -19 209 -61 276 -135 176 -193 200 -206
363 -205 l112 1 104 52 c57 29 113 61 124 72 12 10 26 19 31 19 5 0 26 16 47
35 20 19 40 35 43 35 13 0 77 85 99 130 12 25 30 84 41 132 28 120 43 143 121
190 19 12 37 25 40 28 3 4 14 9 25 13 54 15 176 66 189 78 8 8 33 29 55 48 48
40 101 141 101 194 0 40 -27 117 -41 117 -5 0 -9 7 -9 15 0 8 -4 15 -10 15 -5
0 -10 6 -10 13 0 15 -109 117 -126 117 -7 0 -14 3 -16 8 -1 4 -28 26 -59 49
-130 99 -249 280 -288 438 -22 85 -45 127 -97 174 -44 41 -100 51 -126 23z"/>
</g>
</svg>
