<?xml version="1.0" standalone="no"?>
<!DOCTYPE svg PUBLIC "-//W3C//DTD SVG 20010904//EN"
 "http://www.w3.org/TR/2001/REC-SVG-20010904/DTD/svg10.dtd">
<svg version="1.0" xmlns="http://www.w3.org/2000/svg"
 width="239.000000pt" height="191.000000pt" viewBox="0 0 239.000000 191.000000"
 preserveAspectRatio="xMidYMid meet">
<metadata>
Created by potrace 1.16, written by Peter Selinger 2001-2019
</metadata>
<g transform="translate(0.000000,191.000000) scale(0.100000,-0.100000)"
fill="#000000" stroke="none">
<path d="M2216 1811 c-32 -22 -176 -171 -176 -183 0 -18 -67 -68 -105 -79 -59
-17 -157 -4 -271 34 -140 48 -171 52 -243 32 -50 -14 -84 -16 -198 -10 -181 9
-220 9 -333 0 -120 -9 -185 5 -340 76 -141 63 -172 69 -231 39 -54 -28 -167
-141 -194 -195 -11 -22 -25 -46 -32 -53 -38 -41 -20 -142 64 -360 80 -205 88
-320 52 -672 -24 -231 -20 -268 31 -320 61 -62 112 -50 197 48 172 196 181
202 313 202 86 0 95 -2 170 -40 44 -22 89 -40 100 -40 12 0 47 26 82 60 33 33
65 60 70 60 5 0 16 7 24 15 10 9 34 15 65 15 62 0 86 -13 162 -85 50 -48 109
-80 130 -72 9 3 21 35 31 80 29 131 74 179 191 208 28 6 54 16 59 20 6 5 22 9
36 9 24 0 92 41 128 77 53 52 274 712 312 929 13 72 7 144 -10 144 -6 0 -10 8
-10 18 0 10 -10 28 -23 40 -22 21 -23 21 -51 3z"/>
</g>
</svg>
