<?xml version="1.0" standalone="no"?>
<!DOCTYPE svg PUBLIC "-//W3C//DTD SVG 20010904//EN"
 "http://www.w3.org/TR/2001/REC-SVG-20010904/DTD/svg10.dtd">
<svg version="1.0" xmlns="http://www.w3.org/2000/svg"
 width="169.000000pt" height="176.000000pt" viewBox="0 0 169.000000 176.000000"
 preserveAspectRatio="xMidYMid meet">
<metadata>
Created by potrace 1.16, written by Peter Selinger 2001-2019
</metadata>
<g transform="translate(0.000000,176.000000) scale(0.100000,-0.100000)"
fill="#000000" stroke="none">
<path d="M1095 1679 c-52 -15 -97 -43 -140 -84 -44 -42 -105 -118 -105 -130 0
-12 -70 -69 -113 -92 -34 -19 -57 -23 -132 -23 -78 0 -98 4 -150 28 -99 47
-108 48 -178 6 -71 -43 -166 -136 -191 -187 -23 -50 -20 -138 10 -258 34 -134
62 -189 131 -253 93 -87 113 -122 129 -239 8 -56 19 -116 24 -133 15 -43 62
-82 134 -110 33 -14 86 -40 118 -59 31 -19 61 -35 67 -35 6 0 11 -4 11 -8 0
-20 80 -34 162 -30 66 4 95 11 143 35 112 55 165 86 165 94 0 5 7 9 15 9 8 0
15 4 15 9 0 5 10 13 23 17 40 12 217 208 217 240 0 5 9 15 20 22 46 28 100
181 100 282 0 30 11 101 25 158 33 137 33 232 -1 348 -14 49 -34 107 -45 130
-10 22 -19 46 -19 52 0 7 -4 12 -10 12 -5 0 -10 6 -10 14 0 7 -11 25 -25 40
-13 15 -29 35 -35 46 -6 11 -17 20 -25 20 -8 0 -15 5 -15 10 0 6 -7 10 -15 10
-8 0 -15 5 -15 10 0 6 -5 10 -11 10 -5 0 -35 11 -65 25 -58 26 -148 33 -209
14z"/>
</g>
</svg>
