<?xml version="1.0" standalone="no"?>
<!DOCTYPE svg PUBLIC "-//W3C//DTD SVG 20010904//EN"
 "http://www.w3.org/TR/2001/REC-SVG-20010904/DTD/svg10.dtd">
<svg version="1.0" xmlns="http://www.w3.org/2000/svg"
 width="148.000000pt" height="184.000000pt" viewBox="0 0 148.000000 184.000000"
 preserveAspectRatio="xMidYMid meet">
<metadata>
Created by potrace 1.16, written by Peter Selinger 2001-2019
</metadata>
<g transform="translate(0.000000,184.000000) scale(0.100000,-0.100000)"
fill="#000000" stroke="none">
<path d="M752 1731 c-48 -51 -67 -75 -103 -136 -16 -27 -35 -59 -42 -69 -10
-17 -62 -69 -100 -102 -14 -12 -136 -60 -240 -94 -119 -39 -167 -101 -187
-242 -15 -101 -15 -244 0 -298 17 -62 39 -110 50 -110 6 0 10 -6 10 -13 0 -17
79 -97 96 -97 8 0 14 -4 14 -8 0 -5 28 -27 63 -50 65 -44 177 -145 177 -161 0
-5 3 -11 8 -13 4 -1 27 -43 52 -92 25 -48 51 -90 58 -93 6 -3 12 -11 12 -19 0
-7 10 -19 22 -25 13 -7 29 -18 36 -26 31 -31 110 -13 347 78 99 38 203 108
204 137 1 6 5 12 10 12 20 0 69 100 86 175 9 44 21 89 26 100 4 11 13 55 19
99 7 43 18 100 26 125 25 82 19 125 -22 171 -20 22 -42 40 -50 40 -7 0 -30 9
-51 21 -27 15 -65 23 -137 29 -130 10 -149 20 -187 95 -39 79 -46 161 -25 283
21 124 20 139 -13 197 -25 44 -100 125 -116 125 -3 0 -22 -18 -43 -39z"/>
</g>
</svg>
