<?xml version="1.0" standalone="no"?>
<!DOCTYPE svg PUBLIC "-//W3C//DTD SVG 20010904//EN"
 "http://www.w3.org/TR/2001/REC-SVG-20010904/DTD/svg10.dtd">
<svg version="1.0" xmlns="http://www.w3.org/2000/svg"
 width="165.000000pt" height="188.000000pt" viewBox="0 0 165.000000 188.000000"
 preserveAspectRatio="xMidYMid meet">
<metadata>
Created by potrace 1.16, written by Peter Selinger 2001-2019
</metadata>
<g transform="translate(0.000000,188.000000) scale(0.100000,-0.100000)"
fill="#000000" stroke="none">
<path d="M392 1774 c-63 -31 -192 -138 -192 -158 0 -4 -9 -16 -19 -28 -23 -24
-74 -149 -96 -233 -20 -80 -19 -167 6 -332 20 -137 21 -169 7 -517 -1 -23 3
-41 10 -44 7 -2 12 -10 12 -17 0 -13 123 -99 200 -141 19 -10 37 -22 38 -26 2
-5 10 -8 17 -8 7 0 15 -7 19 -15 3 -8 12 -15 21 -15 8 0 15 -4 15 -9 0 -4 19
-21 42 -37 23 -16 62 -48 86 -72 60 -58 115 -68 156 -27 8 8 19 15 25 15 6 0
11 5 11 10 0 6 4 10 10 10 5 0 39 21 75 46 36 26 88 55 114 65 61 23 194 36
224 21 12 -5 43 -17 69 -27 26 -9 62 -27 81 -39 57 -39 157 -62 157 -37 0 5
11 12 24 15 13 3 34 22 46 42 19 30 21 44 16 95 -4 33 -21 90 -37 127 -17 37
-43 108 -57 157 -26 88 -26 96 -27 395 0 330 -2 344 -57 403 -25 27 -26 27
-163 27 -105 0 -145 4 -171 16 -35 17 -144 118 -144 133 0 5 -37 48 -83 95
-108 111 -177 146 -288 146 -67 0 -85 -4 -147 -36z"/>
</g>
</svg>
