<?xml version="1.0" standalone="no"?>
<!DOCTYPE svg PUBLIC "-//W3C//DTD SVG 20010904//EN"
 "http://www.w3.org/TR/2001/REC-SVG-20010904/DTD/svg10.dtd">
<svg version="1.0" xmlns="http://www.w3.org/2000/svg"
 width="164.000000pt" height="154.000000pt" viewBox="0 0 164.000000 154.000000"
 preserveAspectRatio="xMidYMid meet">
<metadata>
Created by potrace 1.16, written by Peter Selinger 2001-2019
</metadata>
<g transform="translate(0.000000,154.000000) scale(0.100000,-0.100000)"
fill="#000000" stroke="none">
<path d="M91 1444 l-24 -25 18 -57 c21 -67 79 -185 103 -209 12 -12 18 -38 20
-97 4 -76 1 -88 -37 -183 -55 -135 -62 -179 -45 -256 8 -33 18 -66 23 -71 37
-50 41 -247 7 -318 -21 -44 -13 -64 47 -120 45 -43 50 -44 71 -23 8 8 19 15
25 15 6 0 11 4 11 8 0 24 164 172 223 202 16 8 39 23 51 35 12 11 39 29 60 40
21 11 40 26 43 33 3 6 9 12 14 12 5 0 29 15 54 33 46 32 48 32 178 35 109 2
155 -2 267 -23 173 -34 234 -40 271 -26 16 6 43 16 59 22 28 11 43 39 20 39
-5 0 -10 6 -10 13 0 7 -8 22 -18 33 -35 37 -122 229 -141 312 -11 46 -27 95
-35 108 -21 31 -95 104 -107 104 -5 0 -9 4 -9 8 0 5 -28 21 -62 37 -91 40 -97
42 -165 59 -73 18 -101 32 -245 119 -148 90 -188 104 -242 87 -70 -22 -183
-24 -227 -4 -22 9 -39 21 -39 26 0 4 -7 8 -15 8 -8 0 -15 4 -15 9 0 5 -13 12
-30 16 -16 4 -30 11 -30 16 0 19 -46 8 -69 -17z"/>
</g>
</svg>
