<?xml version="1.0" standalone="no"?>
<!DOCTYPE svg PUBLIC "-//W3C//DTD SVG 20010904//EN"
 "http://www.w3.org/TR/2001/REC-SVG-20010904/DTD/svg10.dtd">
<svg version="1.0" xmlns="http://www.w3.org/2000/svg"
 width="189.000000pt" height="196.000000pt" viewBox="0 0 189.000000 196.000000"
 preserveAspectRatio="xMidYMid meet">
<metadata>
Created by potrace 1.16, written by Peter Selinger 2001-2019
</metadata>
<g transform="translate(0.000000,196.000000) scale(0.100000,-0.100000)"
fill="#000000" stroke="none">
<path d="M653 1861 c-18 -15 -33 -37 -33 -48 0 -12 -4 -23 -10 -25 -5 -1 -15
-30 -21 -63 -14 -77 -34 -119 -79 -165 -20 -20 -41 -50 -48 -66 -6 -16 -23
-60 -38 -99 -28 -74 -44 -94 -183 -241 -106 -113 -103 -109 -136 -178 -31 -66
-35 -136 -10 -205 8 -24 15 -53 16 -65 1 -29 51 -117 74 -130 11 -6 25 -16 31
-22 19 -17 123 -26 231 -19 118 8 166 -4 241 -61 29 -21 52 -41 52 -45 0 -3
14 -23 30 -44 17 -21 30 -44 30 -52 0 -34 65 -167 100 -204 57 -61 84 -73 123
-52 18 8 36 22 40 29 4 8 13 14 19 14 5 0 24 11 42 25 17 14 36 29 41 33 13
10 74 28 145 43 65 14 150 48 150 60 0 5 6 9 13 9 16 0 57 42 57 58 0 7 4 12
8 12 9 0 14 10 88 190 26 63 58 129 72 147 30 41 110 235 118 290 6 43 -10
113 -27 113 -5 0 -9 6 -9 13 0 8 -10 23 -22 35 -42 39 -112 60 -235 72 -116
11 -253 37 -263 49 -3 3 -34 21 -70 38 -82 42 -91 48 -148 105 -59 58 -69 75
-143 226 -33 67 -64 122 -69 122 -6 0 -10 5 -10 11 0 21 -111 121 -132 119 -2
-1 -18 -13 -35 -29z"/>
</g>
</svg>
