<?xml version="1.0" standalone="no"?>
<!DOCTYPE svg PUBLIC "-//W3C//DTD SVG 20010904//EN"
 "http://www.w3.org/TR/2001/REC-SVG-20010904/DTD/svg10.dtd">
<svg version="1.0" xmlns="http://www.w3.org/2000/svg"
 width="210.000000pt" height="196.000000pt" viewBox="0 0 210.000000 196.000000"
 preserveAspectRatio="xMidYMid meet">
<metadata>
Created by potrace 1.16, written by Peter Selinger 2001-2019
</metadata>
<g transform="translate(0.000000,196.000000) scale(0.100000,-0.100000)"
fill="#000000" stroke="none">
<path d="M891 1863 c-17 -15 -31 -33 -31 -40 0 -7 -4 -13 -9 -13 -10 0 -47
-97 -61 -164 -6 -27 -15 -101 -20 -165 -17 -231 -53 -265 -345 -326 -122 -25
-225 -60 -225 -76 0 -5 -6 -9 -14 -9 -39 0 -106 -119 -113 -201 -8 -84 -2 -88
132 -82 145 7 183 -3 232 -65 21 -26 46 -53 56 -60 9 -7 17 -20 17 -28 0 -8 4
-14 9 -14 5 0 12 -8 15 -17 3 -10 24 -38 46 -62 22 -24 40 -46 40 -49 0 -3 7
-12 15 -21 9 -9 37 -43 63 -76 47 -61 64 -82 92 -113 9 -9 24 -34 35 -55 11
-20 23 -37 27 -37 5 0 8 -6 8 -13 0 -7 16 -30 35 -51 l34 -38 46 44 c25 24 45
48 46 53 2 18 88 87 126 101 48 17 136 18 182 2 20 -7 55 -25 78 -40 23 -15
43 -28 46 -28 2 0 24 -19 48 -41 24 -23 60 -52 81 -66 l36 -24 52 26 c99 50
236 209 326 379 23 44 25 54 15 86 -6 19 -23 49 -39 65 -39 41 -52 84 -52 174
0 177 -35 213 -245 256 -44 9 -100 26 -125 37 -55 25 -140 84 -159 112 -8 11
-23 28 -33 38 -10 10 -18 22 -18 27 0 5 -3 11 -7 13 -13 5 -73 135 -90 191
-25 88 -74 207 -84 207 -5 0 -9 7 -9 15 0 26 -121 155 -145 155 -8 0 -15 5
-15 10 0 22 -68 10 -99 -17z"/>
</g>
</svg>
