<?xml version="1.0" standalone="no"?>
<!DOCTYPE svg PUBLIC "-//W3C//DTD SVG 20010904//EN"
 "http://www.w3.org/TR/2001/REC-SVG-20010904/DTD/svg10.dtd">
<svg version="1.0" xmlns="http://www.w3.org/2000/svg"
 width="159.000000pt" height="124.000000pt" viewBox="0 0 159.000000 124.000000"
 preserveAspectRatio="xMidYMid meet">
<metadata>
Created by potrace 1.16, written by Peter Selinger 2001-2019
</metadata>
<g transform="translate(0.000000,124.000000) scale(0.100000,-0.100000)"
fill="#000000" stroke="none">
<path d="M840 1156 c-51 -19 -150 -76 -150 -87 0 -5 -6 -9 -14 -9 -8 0 -23
-11 -34 -25 -11 -14 -25 -25 -30 -25 -6 0 -15 -6 -19 -14 -4 -7 -22 -21 -40
-30 -39 -20 -171 -21 -224 -2 -47 16 -59 11 -107 -49 -22 -27 -56 -66 -76 -84
-20 -19 -36 -40 -36 -47 0 -7 -4 -14 -10 -16 -27 -9 -42 -286 -19 -331 17 -31
65 -76 95 -87 14 -6 83 -24 152 -40 70 -17 156 -40 192 -51 70 -23 266 -116
288 -137 7 -6 20 -12 28 -12 8 0 14 -4 14 -9 0 -5 14 -14 31 -20 26 -9 36 -8
60 9 15 11 31 29 34 40 4 11 10 20 15 20 5 0 11 8 14 18 10 30 60 52 118 52
44 0 62 -5 91 -28 20 -15 39 -35 42 -44 4 -10 12 -18 18 -18 7 0 25 -11 41
-25 31 -27 37 -26 75 18 14 17 38 42 53 57 26 26 27 28 9 44 -9 9 -21 16 -25
16 -4 0 -14 6 -22 14 -8 8 -38 22 -68 30 -51 15 -55 19 -71 64 -28 80 -31 223
-6 318 l21 81 -20 58 c-23 67 -66 145 -80 145 -6 0 -10 6 -10 14 0 7 -11 22
-25 32 -14 10 -25 24 -25 29 0 6 -31 41 -69 78 -69 66 -71 67 -123 66 -29 0
-69 -6 -88 -13z"/>
</g>
</svg>
